<svg xmlns="http://www.w3.org/2000/svg" xmlns:xlink="http://www.w3.org/1999/xlink" version="1.1" id="Layer_1" x="0px" y="0px" width="100px" height="100px" viewBox="0 0 100 100" enable-background="new 0 0 100 100" xml:space="preserve">
<path fill="#757c78" d="M56.59,56.688V6.564c0-3.64-2.95-6.59-6.591-6.59c-3.64,0-6.59,2.95-6.59,6.59v2.097h-8.088  c-3.309,0-5.99,2.683-5.99,5.991c0,3.309,2.682,5.991,5.99,5.991h8.088v2.661h-3.44c-2.263,0-4.098,1.835-4.098,4.098  s1.835,4.098,4.098,4.098h3.44v25.188c-9.023,2.807-15.576,11.223-15.576,21.172c0,12.242,9.924,22.166,22.166,22.166  c12.243,0,22.168-9.924,22.168-22.166C72.167,67.91,65.613,59.494,56.59,56.688z M49.999,88.677  c-5.975,0-10.818-4.842-10.818-10.817S44.024,67.04,49.999,67.04s10.82,4.844,10.82,10.819S55.974,88.677,49.999,88.677z"/>
</svg>