<svg xmlns="http://www.w3.org/2000/svg" xmlns:xlink="http://www.w3.org/1999/xlink" version="1.1" id="Layer_1" x="0px" y="0px" width="100px" height="100px" viewBox="0 0 100 100" enable-background="new 0 0 100 100" xml:space="preserve">
<path fill="#757c78" d="M21.289,88.639c1.636-0.437,3.376-0.822,5.242-1.148c3.695-0.693,5.62-1.078,5.774-1.155  c1.271-0.654,2.099-1.54,2.482-2.657c0.309-1.461,0.616-2.713,0.925-3.753c0.424-1.308,1.135-2.06,2.136-2.251  c1.078-0.192,1.857-0.722,2.339-1.589c-1.012-0.474-1.965-1.841-2.858-4.1c-0.9-2.257-1.575-5.78-2.021-10.567  c-1.306,1.448-2.277,1.342-2.916-0.317c-0.655-1.709-1.424-3.683-2.31-5.92c-0.896-2.244-1.328-4.255-1.299-6.033  c0.034-1.732,0.842-2.473,2.425-2.224c0.27-1.712,0.404-2.608,0.404-2.684c0-0.42-0.164-1.133-0.489-2.136  c-0.326-1.013-0.365-2.524-0.117-4.534c0.248-2.01,0.21-3.801-0.116-5.371c-0.326-1.562-0.048-3.073,0.838-4.532  c1.077-1.502,1.828-2.734,2.252-3.697c0.807-1.771,3.195-3.406,7.159-4.908c3.926-1.509,7.835-2.278,11.723-2.31  c0-0.383,0.847-0.423,2.542-0.115c1.924,0.424,3.965,1.252,6.12,2.483c0.733,0.44,1.916,1.508,3.552,3.206  c0.39-0.343,0.958-0.603,1.702-0.78c0.54-0.115,1.002-0.174,1.387-0.174c1.849,0,3.137,1.56,3.869,4.678  c0.501,2.233,0.75,5.66,0.75,10.279c0,4.042-0.02,6.236-0.058,6.583c-0.062,0.415-0.284,1.666-0.664,3.753  c0.667-0.405,1.217-0.348,1.646,0.174c0.438,0.523,0.697,0.938,0.78,1.24c0.079,0.302,0.032,1.66-0.145,4.071  c-0.18,2.416-0.498,4.525-0.953,6.323c-0.451,1.797-1.866,3.406-4.243,4.822c0,3.35-0.462,6.159-1.387,8.431  c-0.765,1.974-1.841,3.438-3.232,4.389c0.114,0.192,0.288,0.423,0.519,0.693c0.192,0.347,0.25,0.808,0.173,1.385  c1.387-0.692,2.483-0.442,3.291,0.752c0.501,0.729,1.176,2.174,2.021,4.33c0.77,1.617,2.176,2.714,4.215,3.29  c1.155,0.31,2.773,0.578,4.852,0.81c0.582,0.119,1.225,0.335,1.92,0.636c9.432-8.398,15.378-20.628,15.378-34.251  c0-25.324-20.529-45.854-45.855-45.854c-25.325,0-45.854,20.53-45.854,45.854C5.186,67.728,11.438,80.228,21.289,88.639z"/>
</svg>